<?xml version="1.0" encoding="utf-8"?>
<!-- Generator: Adobe Illustrator 23.0.3, SVG Export Plug-In . SVG Version: 6.00 Build 0)  -->
<svg version="1.1" id="Capa_1" xmlns="http://www.w3.org/2000/svg" xmlns:xlink="http://www.w3.org/1999/xlink" x="0px" y="0px"
	 viewBox="0 0 1476.78 512" enable-background="new 0 0 1476.78 512" xml:space="preserve">
<g>
	<path fill="#0032A3" d="M110.01,350.41V163.73h34.14v186.68H110.01z"/>
	<path fill="#0032A3" d="M172.95,350.41V218.13h30.15l2.66,22.41c4.09-7.82,10.01-14.04,17.74-18.68
		c7.73-4.61,16.84-6.93,27.34-6.93c16.35,0,29.06,5.17,38.13,15.47c9.07,10.31,13.6,25.43,13.6,45.34v74.67h-34.13v-71.47
		c0-11.38-2.31-20.1-6.93-26.14c-4.63-6.04-11.83-9.06-21.61-9.06c-9.6,0-17.47,3.37-23.6,10.12c-6.13,6.76-9.2,16.19-9.2,28.28
		v68.27H172.95z"/>
	<path fill="#0032A3" d="M389.23,353.61c-12.45,0-23.56-3.03-33.34-9.07c-9.78-6.03-17.51-14.3-23.2-24.8
		c-5.7-10.49-8.54-22.41-8.54-35.73c0-13.34,2.84-25.21,8.54-35.6c5.69-10.41,13.42-18.58,23.2-24.54
		c9.78-5.96,20.89-8.94,33.34-8.94c9.95,0,18.67,1.87,26.13,5.6c7.47,3.74,13.51,8.99,18.13,15.74v-77.87h34.14v192.02h-30.41
		l-3.73-18.94c-4.26,5.87-9.91,11.03-16.93,15.47C409.54,351.39,400.43,353.61,389.23,353.61z M396.43,323.74
		c11.03,0,20.04-3.68,27.08-11.07c7.02-7.37,10.54-16.84,10.54-28.4s-3.52-21.02-10.54-28.4c-7.03-7.38-16.05-11.07-27.08-11.07
		c-10.84,0-19.83,3.65-26.93,10.94c-7.11,7.29-10.67,16.71-10.67,28.27c0,11.56,3.56,21.06,10.67,28.53
		C376.6,320,385.59,323.74,396.43,323.74z"/>
	<path fill="#0032A3" d="M514.04,197.6c-6.23,0-11.33-1.87-15.33-5.6c-4-3.73-6-8.44-6-14.14c0-5.69,2-10.35,6-14
		c4-3.65,9.1-5.47,15.33-5.47c6.22,0,11.34,1.82,15.33,5.47c4,3.65,6,8.31,6,14c0,5.7-2,10.41-6,14.14
		C525.38,195.73,520.26,197.6,514.04,197.6z M496.97,350.41V218.13h34.14v132.28H496.97z"/>
	<path fill="#0032A3" d="M605.78,353.61c-11.38,0-20.72-1.82-28.01-5.47c-7.29-3.65-12.71-8.49-16.27-14.53s-5.33-12.71-5.33-20
		c0-12.27,4.8-22.22,14.4-29.87c9.6-7.64,24-11.47,43.2-11.47h33.61v-3.2c0-9.06-2.58-15.74-7.74-20c-5.15-4.26-11.56-6.4-19.2-6.4
		c-6.93,0-12.99,1.65-18.14,4.94s-8.36,8.14-9.59,14.53h-33.34c0.89-9.59,4.13-17.95,9.73-25.07c5.6-7.11,12.84-12.58,21.74-16.4
		c8.89-3.82,18.84-5.74,29.86-5.74c18.85,0,33.69,4.72,44.54,14.14c10.85,9.43,16.28,22.76,16.28,40v81.34h-29.07l-3.2-21.33
		c-3.92,7.11-9.39,12.98-16.41,17.6C625.82,351.3,616.81,353.61,605.78,353.61z M613.52,326.94c9.78,0,17.37-3.2,22.8-9.59
		c5.42-6.4,8.84-14.31,10.27-23.74h-29.07c-9.06,0-15.56,1.65-19.47,4.94s-5.86,7.34-5.86,12.13c0,5.17,1.95,9.16,5.86,12
		S607.12,326.94,613.52,326.94z"/>
	<path fill="#0032A3" d="M777.91,353.61c-13.69,0-25.78-2.35-36.28-7.06c-10.48-4.71-18.75-11.47-24.8-20.27
		c-6.04-8.8-9.16-19.51-9.33-32.14h36.01c0.35,8.71,3.51,16.05,9.46,22.01c5.96,5.96,14.17,8.93,24.67,8.93
		c9.07,0,16.27-2.17,21.61-6.53c5.33-4.35,8-10.18,8-17.47c0-7.64-2.35-13.6-7.06-17.86s-10.98-7.74-18.81-10.41
		c-7.82-2.66-16.18-5.5-25.07-8.53c-14.4-4.98-25.38-11.37-32.94-19.21c-7.56-7.81-11.33-18.22-11.33-31.2
		c-0.18-11.03,2.44-20.49,7.87-28.4c5.42-7.91,12.84-14.04,22.27-18.4c9.42-4.35,20.26-6.53,32.53-6.53
		c12.45,0,23.42,2.22,32.94,6.66c9.51,4.45,16.97,10.67,22.4,18.68c5.43,8,8.31,17.51,8.67,28.53h-36.54
		c-0.17-6.58-2.71-12.4-7.6-17.46c-4.89-5.07-11.7-7.61-20.4-7.61c-7.47-0.17-13.74,1.65-18.81,5.47c-5.07,3.82-7.6,9.38-7.6,16.67
		c0,6.23,1.95,11.16,5.86,14.8c3.92,3.65,9.25,6.71,16.01,9.2c6.75,2.49,14.49,5.15,23.2,8c9.25,3.2,17.69,6.93,25.34,11.2
		c7.64,4.26,13.77,9.92,18.4,16.94c4.61,7.02,6.93,16.05,6.93,27.06c0,9.79-2.5,18.85-7.48,27.21
		c-4.97,8.36-12.36,15.07-22.13,20.13C804.13,351.07,792.12,353.61,777.91,353.61z"/>
	<path fill="#0032A3" d="M865.91,350.41V218.13h30.15l2.93,17.87c4.26-6.4,9.91-11.51,16.93-15.33c7.02-3.82,15.16-5.74,24.41-5.74
		c20.44,0,34.94,7.92,43.47,23.74c4.8-7.29,11.24-13.08,19.34-17.34c8.08-4.26,16.93-6.4,26.53-6.4c17.24,0,30.49,5.17,39.74,15.47
		s13.87,25.43,13.87,45.34v74.67h-34.14v-71.47c0-11.38-2.18-20.1-6.53-26.14c-4.36-6.04-11.07-9.06-20.13-9.06
		c-9.26,0-16.67,3.37-22.28,10.12c-5.6,6.76-8.4,16.19-8.4,28.28v68.27h-34.13v-71.47c0-11.38-2.22-20.1-6.67-26.14
		c-4.45-6.04-11.29-9.06-20.53-9.06c-9.07,0-16.41,3.37-22.01,10.12c-5.6,6.76-8.4,16.19-8.4,28.28v68.27H865.91z"/>
	<path fill="#0032A3" d="M1127.54,197.6c-6.23,0-11.33-1.87-15.33-5.6c-4-3.73-6-8.44-6-14.14c0-5.69,2-10.35,6-14
		s9.1-5.47,15.33-5.47c6.22,0,11.34,1.82,15.33,5.47c4,3.65,6,8.31,6,14c0,5.7-2,10.41-6,14.14
		C1138.88,195.73,1133.76,197.6,1127.54,197.6z M1110.47,350.41V218.13h34.14v132.28H1110.47z"/>
	<path fill="#0032A3" d="M1173.67,350.41V158.39h34.14v192.02H1173.67z"/>
	<path fill="#0032A3" d="M1300.36,353.61c-13.34,0-25.15-2.84-35.46-8.54c-10.32-5.69-18.4-13.68-24.28-23.99
		c-5.86-10.31-8.8-22.22-8.8-35.75c0-13.68,2.89-25.86,8.67-36.53c5.77-10.67,13.77-18.98,24-24.94
		c10.22-5.96,22.27-8.94,36.14-8.94c12.98,0,24.44,2.85,34.4,8.54c9.96,5.69,17.73,13.47,23.34,23.33c5.6,9.88,8.4,20.85,8.4,32.94
		c0,1.96-0.05,4-0.14,6.14c-0.09,2.13-0.22,4.35-0.39,6.66h-100.55c0.72,10.31,4.31,18.4,10.81,24.26c6.49,5.87,14.36,8.8,23.6,8.8
		c6.93,0,12.75-1.55,17.46-4.67c4.71-3.1,8.23-7.15,10.54-12.13h34.67c-2.5,8.36-6.63,15.96-12.4,22.8
		c-5.77,6.85-12.89,12.23-21.33,16.14C1320.58,351.65,1311.02,353.61,1300.36,353.61z M1300.63,242.66
		c-8.36,0-15.73,2.37-22.14,7.08s-10.49,11.86-12.26,21.46h65.87c-0.53-8.71-3.73-15.65-9.6-20.8
		C1316.62,245.25,1309.33,242.66,1300.63,242.66z"/>
</g>
</svg>
