<?xml version="1.0" encoding="utf-8"?>
<!-- Generator: Adobe Illustrator 23.0.3, SVG Export Plug-In . SVG Version: 6.00 Build 0)  -->
<svg version="1.1" id="Capa_1" xmlns="http://www.w3.org/2000/svg" xmlns:xlink="http://www.w3.org/1999/xlink" x="0px" y="0px"
	 viewBox="0 0 1476.78 512" enable-background="new 0 0 1476.78 512" xml:space="preserve">
<g>
	<path fill="#0032A3" d="M470.21,326.67V190.56h24.89v136.12H470.21z"/>
	<path fill="#0032A3" d="M516.1,326.67v-96.45h21.98l1.94,16.34c2.98-5.7,7.3-10.24,12.94-13.62c5.63-3.36,12.28-5.06,19.93-5.06
		c11.92,0,21.19,3.77,27.8,11.28s9.91,18.54,9.91,33.06v54.45h-24.88v-52.11c0-8.3-1.69-14.65-5.06-19.06
		c-3.38-4.41-8.62-6.61-15.75-6.61c-7,0-12.74,2.46-17.21,7.38c-4.47,4.93-6.71,11.81-6.71,20.62v49.78H516.1z"/>
	<path fill="#0032A3" d="M673.81,329.01c-9.08,0-17.18-2.21-24.31-6.61c-7.13-4.4-12.77-10.43-16.92-18.08
		c-4.15-7.65-6.23-16.34-6.23-26.06c0-9.72,2.07-18.38,6.23-25.96c4.15-7.59,9.79-13.55,16.92-17.89
		c7.13-4.34,15.23-6.52,24.31-6.52c7.26,0,13.61,1.36,19.05,4.08c5.44,2.73,9.85,6.55,13.22,11.47v-56.78h24.89v140.01h-22.17
		l-2.72-13.81c-3.11,4.28-7.22,8.04-12.34,11.28C688.61,327.39,681.97,329.01,673.81,329.01z M679.05,307.22
		c8.04,0,14.61-2.68,19.74-8.07c5.12-5.37,7.68-12.28,7.68-20.71s-2.56-15.33-7.68-20.71c-5.13-5.38-11.7-8.07-19.74-8.07
		c-7.9,0-14.46,2.66-19.64,7.98c-5.18,5.32-7.78,12.19-7.78,20.61s2.6,15.36,7.78,20.8C664.6,304.5,671.15,307.22,679.05,307.22z"/>
	<path fill="#0032A3" d="M764.81,215.25c-4.54,0-8.26-1.36-11.18-4.08c-2.92-2.72-4.38-6.16-4.38-10.31c0-4.15,1.46-7.55,4.38-10.21
		c2.92-2.66,6.64-3.99,11.18-3.99c4.53,0,8.27,1.33,11.18,3.99c2.92,2.66,4.38,6.06,4.38,10.21c0,4.15-1.46,7.59-4.38,10.31
		C773.08,213.89,769.34,215.25,764.81,215.25z M752.36,326.67v-96.45h24.89v96.45H752.36z"/>
	<path fill="#0032A3" d="M831.7,329.01c-8.3,0-15.1-1.33-20.42-3.99s-9.27-6.19-11.86-10.59c-2.6-4.41-3.89-9.27-3.89-14.58
		c0-8.95,3.5-16.2,10.5-21.78c7-5.57,17.5-8.36,31.5-8.36h24.51v-2.33c0-6.61-1.88-11.47-5.64-14.58c-3.76-3.11-8.43-4.67-14-4.67
		c-5.06,0-9.47,1.2-13.23,3.6s-6.09,5.93-6.99,10.59h-24.31c0.65-6.99,3.01-13.09,7.1-18.28c4.08-5.18,9.36-9.17,15.85-11.96
		c6.48-2.79,13.74-4.19,21.78-4.19c13.74,0,24.57,3.44,32.47,10.31c7.91,6.88,11.87,16.59,11.87,29.17v59.31h-21.2l-2.33-15.56
		c-2.86,5.18-6.84,9.46-11.96,12.83S839.74,329.01,831.7,329.01z M837.34,309.56c7.13,0,12.67-2.33,16.62-6.99
		c3.95-4.67,6.45-10.44,7.49-17.31h-21.2c-6.61,0-11.35,1.2-14.2,3.6s-4.27,5.35-4.27,8.85c0,3.77,1.42,6.68,4.27,8.75
		S832.68,309.56,837.34,309.56z"/>
	<path fill="#0032A3" d="M957.21,329.01c-9.99,0-18.8-1.72-26.45-5.15c-7.64-3.43-13.67-8.36-18.08-14.78s-6.68-14.23-6.8-23.44
		h26.25c0.25,6.35,2.56,11.7,6.9,16.05c4.34,4.34,10.33,6.51,17.99,6.51c6.61,0,11.86-1.58,15.75-4.76
		c3.89-3.17,5.83-7.42,5.83-12.74c0-5.57-1.72-9.91-5.15-13.02c-3.43-3.11-8.01-5.64-13.71-7.59c-5.7-1.94-11.8-4.01-18.28-6.22
		c-10.5-3.63-18.51-8.29-24.01-14.01c-5.52-5.7-8.26-13.29-8.26-22.75c-0.13-8.04,1.78-14.94,5.74-20.71
		c3.95-5.77,9.36-10.24,16.24-13.42c6.87-3.17,14.77-4.76,23.72-4.76c9.08,0,17.08,1.62,24.01,4.86
		c6.93,3.24,12.38,7.78,16.33,13.62c3.96,5.83,6.06,12.77,6.32,20.8H974.9c-0.13-4.79-1.98-9.04-5.54-12.73
		c-3.57-3.7-8.53-5.55-14.88-5.55c-5.44-0.13-10.02,1.2-13.71,3.99s-5.54,6.84-5.54,12.15c0,4.54,1.42,8.13,4.27,10.79
		c2.86,2.66,6.74,4.89,11.67,6.71c4.92,1.81,10.56,3.76,16.92,5.83c6.74,2.33,12.9,5.06,18.48,8.17
		c5.57,3.11,10.04,7.23,13.42,12.35c3.36,5.12,5.06,11.7,5.06,19.73c0,7.14-1.82,13.74-5.45,19.84
		c-3.62,6.09-9.01,10.99-16.13,14.68C976.33,327.16,967.57,329.01,957.21,329.01z"/>
	<path fill="#0032A3" d="M1021.37,326.67v-96.45h21.98l2.14,13.03c3.11-4.67,7.22-8.4,12.34-11.18s11.05-4.19,17.8-4.19
		c14.91,0,25.48,5.78,31.7,17.31c3.5-5.32,8.2-9.53,14.1-12.64c5.89-3.11,12.34-4.67,19.35-4.67c12.57,0,22.23,3.77,28.98,11.28
		s10.11,18.54,10.11,33.06v54.45h-24.89v-52.11c0-8.3-1.59-14.65-4.76-19.06c-3.18-4.41-8.07-6.61-14.68-6.61
		c-6.75,0-12.15,2.46-16.24,7.38c-4.08,4.93-6.12,11.81-6.12,20.62v49.78h-24.88v-52.11c0-8.3-1.62-14.65-4.87-19.06
		c-3.24-4.41-8.23-6.61-14.97-6.61c-6.61,0-11.96,2.46-16.05,7.38c-4.08,4.93-6.12,11.81-6.12,20.62v49.78H1021.37z"/>
	<path fill="#0032A3" d="M1212.14,215.25c-4.54,0-8.26-1.36-11.18-4.08c-2.92-2.72-4.38-6.16-4.38-10.31
		c0-4.15,1.46-7.55,4.38-10.21s6.64-3.99,11.18-3.99c4.53,0,8.27,1.33,11.18,3.99c2.92,2.66,4.38,6.06,4.38,10.21
		c0,4.15-1.46,7.59-4.38,10.31C1220.41,213.89,1216.68,215.25,1212.14,215.25z M1199.7,326.67v-96.45h24.89v96.45H1199.7z"/>
	<path fill="#0032A3" d="M1245.78,326.67V186.66h24.89v140.01H1245.78z"/>
	<path fill="#0032A3" d="M1338.15,329.01c-9.72,0-18.34-2.07-25.86-6.23c-7.52-4.15-13.42-9.98-17.7-17.49
		c-4.27-7.52-6.42-16.2-6.42-26.06c0-9.98,2.1-18.86,6.32-26.63c4.21-7.78,10.04-13.84,17.5-18.18c7.45-4.34,16.24-6.52,26.35-6.52
		c9.46,0,17.82,2.08,25.08,6.23s12.93,9.82,17.02,17.01c4.08,7.2,6.12,15.2,6.12,24.01c0,1.43-0.04,2.92-0.1,4.48
		c-0.06,1.55-0.16,3.17-0.28,4.86h-73.32c0.52,7.52,3.14,13.42,7.88,17.69c4.73,4.28,10.47,6.42,17.21,6.42
		c5.06,0,9.3-1.13,12.73-3.4c3.43-2.26,6-5.21,7.68-8.85h25.28c-1.82,6.09-4.83,11.64-9.04,16.62c-4.21,4.99-9.4,8.92-15.56,11.77
		C1352.9,327.58,1345.93,329.01,1338.15,329.01z M1338.35,248.11c-6.09,0-11.47,1.72-16.14,5.16c-4.67,3.43-7.65,8.65-8.94,15.65
		h48.03c-0.39-6.35-2.72-11.41-7-15.17C1350.01,249.99,1344.69,248.11,1338.35,248.11z"/>
</g>
<g>
	<g>
		<g>
			<g>
				<path fill="#424CFA" d="M348.23,139.78c-13.86-35.72-51.58-45.08-81.08-33.76c10.49,11.02,19.14,23.8,25.48,37.84
					C310.73,138.69,329.68,137.31,348.23,139.78z"/>
				<path fill="#424CFA" d="M190.99,143.92c6.31-14.01,14.93-26.75,25.37-37.75c-30.32-11.86-69.77-0.51-82.55,34.07
					C152.86,137.43,172.38,138.64,190.99,143.92z"/>
				<path fill="#0032A3" d="M305.2,146.15c-11.08-28.38-30.93-52.99-57.59-70.07l-5.78-3.71l-5.79,3.71
					c-26.01,16.66-45.66,40.49-56.91,68.18c6.79,2.32,13.66,4.45,20.24,7.2c8.8-21.16,23.37-39.63,42.46-53.38
					c19.2,13.83,33.75,32.45,42.5,53.65C291.11,149.14,298.13,147.73,305.2,146.15z"/>
			</g>
			<g>
				<path fill="#424CFA" d="M292.62,374.58c-6.27,13.93-14.82,26.6-25.18,37.56c30.25,11.78,69.54,0.49,82.39-33.9
					C330.78,381.06,311.25,379.85,292.62,374.58z"/>
				<path fill="#424CFA" d="M135.4,378.22c13.74,35.85,51.4,45.34,80.93,34.13c-10.49-11.05-19.13-23.86-25.45-37.94
					C172.82,379.49,153.9,380.76,135.4,378.22z"/>
				<path fill="#0032A3" d="M283.56,368.67c-8.86,20.48-23.16,38.36-41.76,51.77c-19.11-13.77-33.64-32.27-42.42-53.34
					c-0.28,0.13-0.55,0.25-0.83,0.38c-5.74,3.72-12.02,6.33-19.12,7.49c11.27,27.28,30.74,50.9,56.58,67.46l5.78,3.71l5.79-3.71
					c24.8-15.89,43.83-38.29,55.29-64.35C296.06,375.71,289.56,372.77,283.56,368.67z"/>
			</g>
			<path fill="#424CFA" d="M145.56,248.14c-11.03-16-18.23-33.83-21.61-52.24c-26.27,8.98-45.17,33.87-45.17,63.18
				c0,29.39,19,54.33,45.38,63.25c3.36-18.28,10.5-35.99,21.4-51.9V248.14z"/>
			<g>
				<path fill="#424CFA" d="M360.6,196.42c-3.54,18.77-11.06,36.93-22.57,53.13v19.78c11.37,16.16,18.8,34.23,22.28,52.91
					c25.92-9.17,44.5-33.89,44.5-62.96C404.81,230.32,386.38,205.67,360.6,196.42z"/>
			</g>
			<path fill="#0032A3" d="M330.33,274.53l-15.16-15.16c28.59-28.59,41.38-68.69,34.92-108.46c-35.25-5.72-70.82,3.58-98.59,26.04
				l-13.49-16.67c34.66-28.04,79.7-38.61,123.53-29.01l6.71,1.47l1.47,6.71C380.49,188.6,365.77,239.1,330.33,274.53z"/>
			<g>
				<g>
					<path fill="#FFFFFF" d="M236.87,167.52l-1.4,1.83l19.05,2.2c0-3.31-0.13-6.58-0.36-9.83c-2.45,1.65-4.87,3.36-7.22,5.18
						L236.87,167.52z"/>
					<path fill="#FFFFFF" d="M228.18,166.78c0.03,0.42,0.05,0.84,0.08,1.26l8.61-0.52l0.14-0.18c-2.91-2.27-5.9-4.41-8.95-6.41
						C228.02,162.84,228.06,164.79,228.18,166.78z"/>
				</g>
				<path fill="#0032A3" d="M153.26,274.71c-35.43-35.43-50.16-85.93-39.39-135.07l1.47-6.71l6.71-1.47
					c42.89-9.41,87.2,0.6,121.56,27.44l-13.2,16.9c-27.48-21.45-62.45-30.29-96.91-24.7c-6.46,39.77,6.33,79.87,34.92,108.46
					L153.26,274.71z"/>
			</g>
			<g>
				<g>
					<path fill="none" d="M145.01,270.42c2.63-3.84,5.48-7.57,8.56-11.18c-3.07-3.59-5.92-7.31-8.56-11.13V270.42z"/>
					<path fill="#FFFFFF" d="M153.57,259.24c2.31,2.7,4.72,5.34,7.27,7.89l6.13-8.04l-5.94-7.97
						C158.41,253.74,155.93,256.46,153.57,259.24z"/>
				</g>
				<path fill="#0032A3" d="M153.95,390.23c-10.55,0-21.18-1.14-31.71-3.44l-6.71-1.47l-1.47-6.71
					c-10.77-49.14,3.96-99.64,39.39-135.07l15.16,15.16c-28.59,28.59-41.38,68.7-34.92,108.45c33.96,5.52,68.53-3.02,95.83-23.87
					l13.01,17.05C216.89,379.91,185.77,390.23,153.95,390.23z"/>
			</g>
			<g>
				<path fill="#0032A3" d="M329.32,390.5c-33.15,0-65.38-11.21-91.65-32.47l13.49-16.67c27.77,22.46,63.35,31.77,98.59,26.03
					c6.46-39.76-6.33-79.86-34.92-108.46l15.17-15.16c35.43,35.44,50.16,85.93,39.39,135.07l-1.47,6.71l-6.71,1.47
					C350.59,389.36,339.9,390.5,329.32,390.5z"/>
			</g>
			<path fill="#424CFA" d="M320.88,338.41c0.01-0.01,0.03-0.02,0.04-0.04c8.13-10.77,12.97-24.17,12.97-38.71
				c0-15.15-5.25-29.06-14.01-40.05c-0.15-0.19-0.15-0.45,0-0.63c8.76-10.99,14.01-24.9,14.01-40.05c0-14.54-4.84-27.94-12.97-38.71
				c-0.01-0.02-0.03-0.03-0.04-0.04c-10.77-8.13-24.17-12.97-38.71-12.97c-15.15,0-29.06,5.25-40.05,14.01
				c-0.19,0.15-0.45,0.15-0.63,0c-10.99-8.76-24.9-14.01-40.05-14.01c-14.54,0-27.94,4.84-38.71,12.97
				c-0.02,0.01-0.03,0.02-0.04,0.04c-8.13,10.77-12.97,24.17-12.97,38.71c0,15.15,5.25,29.06,14.01,40.05
				c0.15,0.19,0.15,0.45,0,0.63c-8.76,10.99-14.01,24.9-14.01,40.05c0,14.54,4.84,27.94,12.97,38.71c0.01,0.01,0.02,0.03,0.04,0.04
				c10.77,8.14,24.17,12.97,38.71,12.97c15.15,0,29.06-5.25,40.05-14.01c0.19-0.15,0.45-0.15,0.63,0
				c10.99,8.76,24.9,14.01,40.05,14.01C296.7,351.39,310.11,346.55,320.88,338.41z M172.41,218.93c0-8.26,2.41-15.95,6.57-22.41
				c0.01-0.01,0.02-0.03,0.04-0.04c6.47-4.15,14.15-6.57,22.41-6.57c12.5,0,23.68,5.53,31.31,14.25c0.13,0.15,0.13,0.38,0,0.52
				c-7.63,8.72-18.82,14.24-31.31,14.24c0,12.49-5.53,23.68-14.25,31.31c-0.15,0.13-0.38,0.13-0.52,0
				C177.94,242.61,172.41,231.43,172.41,218.93z M282.16,218.93c-12.5,0-23.68-5.53-31.31-14.24c-0.13-0.15-0.13-0.38,0-0.52
				c7.63-8.72,18.82-14.25,31.31-14.25c8.26,0,15.94,2.41,22.41,6.57c0.02,0.01,0.03,0.02,0.04,0.04
				c4.15,6.47,6.57,14.15,6.57,22.41c0,12.5-5.53,23.68-14.25,31.31c-0.15,0.13-0.38,0.13-0.52,0
				C287.69,242.61,282.16,231.43,282.16,218.93C282.17,218.93,282.16,218.93,282.16,218.93z M179.02,322.11
				c-0.02-0.01-0.03-0.02-0.04-0.04c-4.15-6.47-6.57-14.15-6.57-22.41c0-12.5,5.53-23.68,14.25-31.31c0.15-0.13,0.38-0.13,0.52,0
				c8.44,7.39,13.89,18.12,14.23,30.14c0.02,0.66,0.53,1.17,1.19,1.19c12.02,0.33,22.74,5.78,30.14,14.23
				c0.13,0.15,0.13,0.38,0,0.52c-7.63,8.72-18.82,14.25-31.31,14.25C193.17,328.68,185.48,326.27,179.02,322.11z M250.85,313.91
				c7.63-8.72,18.82-14.25,31.31-14.24c0-12.5,5.53-23.68,14.24-31.31c0.15-0.13,0.38-0.13,0.52,0
				c8.72,7.63,14.25,18.82,14.25,31.31c0,8.26-2.41,15.94-6.57,22.41c-0.01,0.02-0.02,0.03-0.04,0.04
				c-6.47,4.15-14.15,6.57-22.41,6.57c-12.5,0-23.68-5.53-31.31-14.25C250.72,314.29,250.72,314.06,250.85,313.91z"/>
			<path fill="#424CFA" d="M346.53,259.24c-1.74-12.53-7.41-24.61-17.04-34.24c-10.06-10.06-22.79-15.8-35.91-17.25
				c-0.15-0.02-0.27-0.13-0.28-0.28c-1.45-13.12-7.19-25.85-17.25-35.91c-9.63-9.63-21.71-15.3-34.24-17.04c0,0,0,0,0,0
				c-12.52,1.74-24.61,7.41-34.24,17.04c-10.06,10.06-15.8,22.79-17.25,35.91c-0.02,0.15-0.13,0.27-0.28,0.28
				c-13.12,1.45-25.85,7.19-35.91,17.25c-9.63,9.63-15.3,21.71-17.04,34.24c0,0,0,0,0,0c1.74,12.52,7.41,24.61,17.04,34.24
				c10.06,10.06,22.79,15.8,35.91,17.25c0.15,0.02,0.27,0.13,0.28,0.28c1.45,13.12,7.19,25.85,17.25,35.91
				c9.63,9.63,21.71,15.3,34.24,17.04c12.53-1.74,24.61-7.41,34.24-17.04c10.06-10.06,15.8-22.79,17.25-35.91
				c0.02-0.15,0.13-0.27,0.28-0.28c13.12-1.45,25.85-7.19,35.91-17.25C339.12,283.85,344.78,271.77,346.53,259.24z"/>
		</g>
	</g>
	<path fill="#FFFFFF" d="M282.58,224.4L282.58,224.4c-10.75-10.75-28.17-10.75-38.92,0l-1.88,1.88c-0.01,0.01-0.02,0.02-0.03,0.03
		c-0.01-0.01-0.02-0.02-0.03-0.03l-1.88-1.88c-10.75-10.75-28.17-10.75-38.92,0h0c-10.75,10.75-10.75,28.17,0,38.92l40.84,38.62
		l40.81-38.62C293.33,252.57,293.33,235.15,282.58,224.4z"/>
</g>
</svg>
