<?xml version="1.0" encoding="utf-8"?>
<!-- Generator: Adobe Illustrator 23.0.3, SVG Export Plug-In . SVG Version: 6.00 Build 0)  -->
<svg version="1.1" id="Capa_1" xmlns="http://www.w3.org/2000/svg" xmlns:xlink="http://www.w3.org/1999/xlink" x="0px" y="0px"
	 viewBox="0 0 512 512" enable-background="new 0 0 512 512" xml:space="preserve">
<g>
	<g>
		<g>
			<g>
				<path fill="#424CFA" d="M333.39,126.27c-9.5-24.49-35.36-30.9-55.58-23.14c7.19,7.56,13.12,16.31,17.47,25.94
					C307.68,125.52,320.67,124.57,333.39,126.27z"/>
				<path fill="#424CFA" d="M225.6,129.1c4.32-9.6,10.24-18.34,17.39-25.88c-20.78-8.13-47.83-0.35-56.59,23.35
					C199.46,124.65,212.84,125.49,225.6,129.1z"/>
				<path fill="#0032A3" d="M303.89,130.63c-7.6-19.45-21.2-36.32-39.48-48.03l-3.97-2.54l-3.97,2.54
					c-17.83,11.42-31.3,27.75-39.01,46.73c4.65,1.59,9.37,3.05,13.87,4.93c6.03-14.5,16.02-27.16,29.1-36.59
					c13.16,9.48,23.14,22.24,29.13,36.78C294.23,132.68,299.05,131.71,303.89,130.63z"/>
			</g>
			<g>
				<path fill="#424CFA" d="M295.27,287.22c-4.3,9.55-10.16,18.24-17.26,25.75c20.73,8.08,47.67,0.34,56.48-23.24
					C321.43,291.66,308.04,290.83,295.27,287.22z"/>
				<path fill="#424CFA" d="M187.49,289.71c9.42,24.57,35.23,31.08,55.48,23.39c-7.19-7.57-13.12-16.35-17.44-26
					C213.14,290.58,200.18,291.45,187.49,289.71z"/>
				<path fill="#0032A3" d="M289.06,283.17c-6.07,14.04-15.88,26.3-28.63,35.48c-13.1-9.44-23.06-22.12-29.08-36.57
					c-0.19,0.09-0.38,0.17-0.57,0.26c-3.94,2.55-8.24,4.34-13.1,5.14c7.72,18.7,21.07,34.89,38.79,46.24l3.96,2.54l3.97-2.54
					c17-10.89,30.04-26.25,37.9-44.11C297.63,287.99,293.17,285.98,289.06,283.17z"/>
			</g>
			<path fill="#424CFA" d="M194.46,200.54c-7.56-10.97-12.5-23.19-14.81-35.81c-18.01,6.16-30.96,23.22-30.96,43.31
				c0,20.15,13.02,37.24,31.1,43.36c2.3-12.53,7.19-24.67,14.67-35.58V200.54z"/>
			<g>
				<path fill="#424CFA" d="M341.87,165.09c-2.43,12.87-7.58,25.31-15.47,36.42v13.56c7.79,11.08,12.89,23.47,15.27,36.27
					c17.77-6.29,30.5-23.23,30.5-43.16C372.17,188.33,359.54,171.43,341.87,165.09z"/>
			</g>
			<path fill="#0032A3" d="M321.12,218.63l-10.39-10.39c19.6-19.6,28.37-47.09,23.94-74.35c-24.17-3.92-48.55,2.45-67.58,17.85
				l-9.24-11.43c23.76-19.22,54.63-26.47,84.68-19.88l4.6,1.01l1.01,4.6C355.51,159.73,345.41,194.34,321.12,218.63z"/>
			<g>
				<g>
					<path fill="#FFFFFF" d="M257.05,145.28l-0.96,1.26l13.06,1.51c0-2.27-0.09-4.51-0.25-6.74c-1.68,1.13-3.34,2.3-4.95,3.55
						L257.05,145.28z"/>
					<path fill="#FFFFFF" d="M251.09,144.77c0.02,0.29,0.04,0.58,0.06,0.87l5.9-0.36l0.09-0.12c-2-1.56-4.04-3.02-6.13-4.39
						C250.98,142.07,251.01,143.41,251.09,144.77z"/>
				</g>
				<path fill="#0032A3" d="M199.74,218.76c-24.29-24.29-34.39-58.9-27-92.59l1.01-4.6l4.6-1.01c29.4-6.45,59.78,0.41,83.33,18.81
					l-9.05,11.58c-18.84-14.71-42.81-20.76-66.43-16.93c-4.43,27.26,4.34,54.75,23.94,74.35L199.74,218.76z"/>
			</g>
			<g>
				<g>
					<path fill="none" d="M194.08,215.81c1.8-2.63,3.76-5.19,5.86-7.66c-2.1-2.46-4.06-5.01-5.86-7.63V215.81z"/>
					<path fill="#FFFFFF" d="M199.95,208.15c1.58,1.85,3.24,3.66,4.99,5.41l4.2-5.51l-4.07-5.47
						C203.27,204.39,201.57,206.25,199.95,208.15z"/>
				</g>
				<path fill="#0032A3" d="M200.21,297.95c-7.23,0-14.52-0.78-21.74-2.36l-4.6-1.01l-1.01-4.6c-7.38-33.69,2.71-68.3,27-92.59
					l10.39,10.39c-19.6,19.6-28.37,47.09-23.94,74.34c23.28,3.78,46.98-2.07,65.69-16.36l8.92,11.68
					C243.35,290.87,222.02,297.95,200.21,297.95z"/>
			</g>
			<g>
				<path fill="#0032A3" d="M320.43,298.13c-22.73,0-44.82-7.69-62.83-22.26l9.24-11.43c19.04,15.4,43.43,21.78,67.58,17.85
					c4.43-27.26-4.34-54.75-23.94-74.35l10.4-10.39c24.29,24.29,34.38,58.9,27,92.59l-1.01,4.6l-4.6,1.01
					C335.01,297.35,327.68,298.13,320.43,298.13z"/>
			</g>
			<path fill="#424CFA" d="M314.64,262.43c0.01-0.01,0.02-0.02,0.03-0.03c5.58-7.38,8.89-16.57,8.89-26.54
				c0-10.38-3.6-19.92-9.61-27.46c-0.1-0.13-0.1-0.31,0-0.43c6.01-7.53,9.61-17.07,9.61-27.46c0-9.97-3.32-19.15-8.89-26.54
				c-0.01-0.01-0.02-0.02-0.03-0.03c-7.38-5.58-16.57-8.89-26.54-8.89c-10.38,0-19.92,3.6-27.46,9.61c-0.13,0.1-0.31,0.1-0.43,0
				c-7.53-6.01-17.07-9.61-27.46-9.61c-9.97,0-19.15,3.32-26.54,8.89c-0.01,0.01-0.02,0.02-0.03,0.03
				c-5.58,7.38-8.89,16.57-8.89,26.54c0,10.38,3.6,19.92,9.61,27.46c0.1,0.13,0.1,0.31,0,0.43c-6.01,7.53-9.61,17.07-9.61,27.45
				c0,9.97,3.32,19.15,8.89,26.54c0.01,0.01,0.02,0.02,0.03,0.03c7.38,5.58,16.57,8.89,26.54,8.89c10.38,0,19.92-3.6,27.46-9.61
				c0.13-0.1,0.31-0.1,0.43,0c7.53,6.01,17.07,9.61,27.46,9.61C298.07,271.32,307.25,268,314.64,262.43z M212.87,180.52
				c0-5.66,1.65-10.93,4.5-15.36c0.01-0.01,0.01-0.02,0.02-0.02c4.43-2.85,9.7-4.5,15.36-4.5c8.57,0,16.24,3.79,21.47,9.77
				c0.09,0.1,0.09,0.26,0,0.36c-5.23,5.98-12.9,9.76-21.47,9.76c0,8.56-3.79,16.23-9.77,21.46c-0.1,0.09-0.26,0.09-0.36,0
				C216.66,196.75,212.87,189.09,212.87,180.52z M288.1,180.52c-8.57,0-16.23-3.79-21.46-9.76c-0.09-0.1-0.09-0.26,0-0.36
				c5.23-5.98,12.9-9.77,21.47-9.77c5.66,0,10.93,1.65,15.36,4.5c0.01,0.01,0.02,0.02,0.03,0.03c2.85,4.43,4.5,9.7,4.5,15.36
				c0,8.57-3.79,16.24-9.77,21.46c-0.1,0.09-0.26,0.09-0.36,0C291.89,196.76,288.1,189.09,288.1,180.52
				C288.1,180.52,288.1,180.52,288.1,180.52z M217.4,251.25c-0.01-0.01-0.02-0.02-0.03-0.03c-2.85-4.43-4.5-9.7-4.5-15.36
				c0-8.57,3.79-16.23,9.77-21.47c0.1-0.09,0.26-0.09,0.36,0c5.79,5.07,9.52,12.42,9.75,20.66c0.01,0.45,0.36,0.81,0.82,0.82
				c8.24,0.23,15.59,3.97,20.66,9.75c0.09,0.1,0.09,0.26,0,0.36c-5.23,5.98-12.9,9.77-21.47,9.77
				C227.1,255.75,221.83,254.1,217.4,251.25z M266.64,245.63c5.23-5.98,12.9-9.76,21.47-9.76c0-8.57,3.79-16.23,9.76-21.47
				c0.1-0.09,0.26-0.09,0.36,0c5.98,5.23,9.77,12.9,9.77,21.47c0,5.66-1.65,10.93-4.5,15.36c-0.01,0.01-0.02,0.02-0.03,0.03
				c-4.43,2.85-9.7,4.5-15.36,4.5c-8.57,0-16.23-3.79-21.47-9.77C266.55,245.89,266.55,245.73,266.64,245.63z"/>
			<path fill="#424CFA" d="M332.22,208.16c-1.19-8.59-5.08-16.87-11.68-23.47c-6.9-6.9-15.63-10.83-24.62-11.83
				c-0.1-0.01-0.18-0.09-0.19-0.19c-1-8.99-4.93-17.72-11.83-24.62c-6.6-6.6-14.88-10.49-23.47-11.68c0,0,0,0,0,0
				c-8.59,1.19-16.87,5.08-23.47,11.68c-6.9,6.9-10.83,15.62-11.83,24.62c-0.01,0.1-0.09,0.18-0.19,0.19
				c-8.99,1-17.72,4.93-24.62,11.83c-6.6,6.6-10.49,14.88-11.68,23.47c0,0,0,0,0,0c1.19,8.59,5.08,16.87,11.68,23.47
				c6.9,6.9,15.63,10.83,24.62,11.83c0.1,0.01,0.18,0.09,0.19,0.19c1,8.99,4.93,17.72,11.83,24.62c6.6,6.6,14.88,10.49,23.47,11.68
				c8.59-1.19,16.87-5.08,23.47-11.68c6.9-6.9,10.83-15.62,11.83-24.62c0.01-0.1,0.09-0.18,0.19-0.19c8.99-1,17.72-4.93,24.62-11.83
				C327.14,225.03,331.03,216.74,332.22,208.16z"/>
		</g>
	</g>
	<path fill="#FFFFFF" d="M288.39,184.27L288.39,184.27c-7.37-7.37-19.31-7.37-26.68,0l-1.29,1.29c-0.01,0.01-0.01,0.02-0.02,0.02
		c-0.01-0.01-0.01-0.02-0.02-0.02l-1.29-1.29c-7.37-7.37-19.31-7.37-26.68,0h0c-7.37,7.37-7.37,19.31,0,26.68l28,26.47l27.98-26.47
		C295.75,203.58,295.75,191.64,288.39,184.27z"/>
</g>
<g>
	<path fill="#0032A3" d="M47.34,392.88l17.97-58.88l10.76,3.29L58.1,396.16L47.34,392.88z"/>
	<path fill="#0032A3" d="M68.95,399.58l10.61-42.32l9.64,2.42l-0.94,7.38c1.93-2.18,4.32-3.69,7.17-4.55
		c2.85-0.86,5.94-0.87,9.3-0.03c5.23,1.31,8.89,3.98,10.96,8.01c2.07,4.03,2.31,9.23,0.72,15.59l-5.99,23.89l-10.92-2.74l5.74-22.86
		c0.91-3.64,0.87-6.61-0.12-8.91c-0.99-2.3-3.06-3.85-6.18-4.63c-3.07-0.77-5.86-0.32-8.36,1.35c-2.51,1.67-4.24,4.44-5.21,8.3
		l-5.48,21.84L68.95,399.58z"/>
	<path fill="#0032A3" d="M141.13,416.83c-4.04-0.7-7.49-2.3-10.32-4.81c-2.84-2.51-4.89-5.63-6.15-9.36
		c-1.26-3.73-1.52-7.76-0.77-12.09c0.74-4.33,2.33-8.03,4.77-11.09c2.43-3.06,5.4-5.29,8.91-6.67s7.29-1.73,11.34-1.03
		c3.24,0.56,5.96,1.65,8.18,3.28c2.22,1.63,3.89,3.68,5.01,6.13l4.36-25.31l11.09,1.91l-10.76,62.4l-9.88-1.7l-0.15-6.36
		c-1.72,1.67-3.84,3.03-6.37,4.08C147.86,417.24,144.77,417.46,141.13,416.83z M145.15,407.53c3.58,0.62,6.72-0.08,9.42-2.08
		c2.69-2,4.37-4.88,5.01-8.64c0.65-3.75,0.04-7.03-1.83-9.82c-1.87-2.79-4.6-4.5-8.18-5.11c-3.53-0.61-6.65,0.07-9.37,2.04
		c-2.72,1.97-4.4,4.83-5.05,8.59c-0.65,3.76-0.03,7.05,1.87,9.87C138.91,405.2,141.62,406.92,145.15,407.53z"/>
	<path fill="#0032A3" d="M178.46,421.39l5.07-43.33l11.18,1.31l-5.07,43.33L178.46,421.39z M189.91,372
		c-2.04-0.24-3.64-1.05-4.81-2.42c-1.17-1.38-1.64-3-1.42-4.86c0.22-1.86,1.05-3.32,2.5-4.36c1.45-1.04,3.2-1.44,5.23-1.2
		c2.04,0.24,3.64,1.03,4.81,2.38c1.17,1.35,1.65,2.96,1.43,4.82c-0.22,1.86-1.05,3.33-2.51,4.4
		C193.69,371.82,191.95,372.23,189.91,372z"/>
	<path fill="#0032A3" d="M215.86,426.15c-3.74-0.25-6.77-1.06-9.09-2.42c-2.32-1.36-3.99-3.07-5.03-5.14
		c-1.04-2.06-1.47-4.3-1.31-6.7c0.27-4.04,2.07-7.2,5.4-9.51c3.33-2.3,8.15-3.25,14.47-2.82l11.06,0.74l0.07-1.05
		c0.2-2.98-0.5-5.24-2.1-6.75s-3.66-2.36-6.18-2.53c-2.28-0.15-4.31,0.25-6.08,1.22c-1.77,0.97-2.93,2.49-3.48,4.57l-10.97-0.73
		c0.5-3.14,1.76-5.82,3.75-8.03c2-2.22,4.51-3.85,7.52-4.92c3.01-1.06,6.33-1.47,9.96-1.23c6.2,0.42,10.98,2.29,14.34,5.63
		c3.36,3.34,4.85,7.85,4.47,13.52l-1.8,26.77l-9.57-0.64l-0.58-7.09c-1.44,2.25-3.37,4.06-5.78,5.43
		C222.5,425.83,219.48,426.39,215.86,426.15z M218.99,417.54c3.22,0.21,5.79-0.67,7.72-2.66c1.92-1.99,3.22-4.51,3.9-7.58
		l-9.57-0.64c-2.98-0.2-5.16,0.2-6.51,1.19c-1.36,1-2.09,2.28-2.2,3.87c-0.11,1.7,0.44,3.06,1.67,4.08
		C215.22,416.82,216.88,417.4,218.99,417.54z"/>
	<path fill="#0032A3" d="M278.62,430.23c-4.51,0.14-8.52-0.52-12.03-1.96c-3.5-1.45-6.3-3.59-8.38-6.43
		c-2.08-2.84-3.22-6.34-3.4-10.5l11.87-0.37c0.21,2.87,1.32,5.25,3.35,7.15c2.02,1.9,4.76,2.8,8.22,2.69
		c2.99-0.09,5.34-0.88,7.05-2.37c1.71-1.49,2.53-3.44,2.46-5.84c-0.08-2.52-0.92-4.46-2.51-5.82c-1.6-1.36-3.7-2.44-6.3-3.24
		c-2.61-0.8-5.39-1.65-8.35-2.56c-4.8-1.49-8.48-3.49-11.05-5.99c-2.57-2.5-3.92-5.89-4.05-10.17c-0.17-3.63,0.6-6.78,2.3-9.44
		s4.09-4.76,7.15-6.29c3.06-1.53,6.61-2.36,10.66-2.49c4.1-0.13,7.74,0.5,10.92,1.86c3.18,1.37,5.71,3.34,7.58,5.92
		c1.87,2.58,2.92,5.69,3.15,9.32l-12.05,0.37c-0.13-2.17-1.02-4.06-2.68-5.68c-1.67-1.62-3.93-2.39-6.8-2.3
		c-2.47,0.02-4.51,0.68-6.14,1.99c-1.63,1.31-2.41,3.17-2.33,5.57c0.06,2.05,0.76,3.66,2.08,4.82c1.33,1.16,3.12,2.12,5.37,2.87
		c2.25,0.76,4.83,1.55,7.73,2.4c3.08,0.96,5.9,2.1,8.47,3.44c2.56,1.33,4.64,3.13,6.24,5.39c1.6,2.27,2.45,5.22,2.56,8.85
		c0.1,3.22-0.63,6.24-2.19,9.04c-1.55,2.81-3.92,5.1-7.09,6.86C287.24,429.13,283.31,430.09,278.62,430.23z"/>
	<path fill="#0032A3" d="M311.13,428.28L305.65,385l9.86-1.25l1.7,5.73c1.13-2.27,2.77-4.18,4.91-5.72c2.14-1.54,4.72-2.5,7.75-2.88
		c6.69-0.84,11.76,1.15,15.21,5.97c1.27-2.58,3.13-4.74,5.61-6.47c2.47-1.73,5.28-2.79,8.42-3.19c5.64-0.72,10.19,0.43,13.64,3.42
		c3.45,2.99,5.59,7.74,6.41,14.26l3.09,24.43l-11.17,1.41l-2.96-23.39c-0.47-3.72-1.54-6.48-3.22-8.28c-1.67-1.8-4-2.51-6.96-2.13
		c-3.02,0.38-5.31,1.8-6.86,4.24c-1.55,2.44-2.08,5.64-1.58,9.59l2.82,22.34l-11.17,1.41l-2.96-23.39
		c-0.47-3.72-1.56-6.48-3.26-8.27s-4.07-2.5-7.09-2.12c-2.97,0.38-5.23,1.79-6.78,4.23c-1.55,2.44-2.08,5.64-1.58,9.59l2.82,22.34
		L311.13,428.28z"/>
	<path fill="#0032A3" d="M389.19,365.74c-2.01,0.41-3.79,0.14-5.33-0.8c-1.54-0.94-2.49-2.33-2.87-4.17
		c-0.37-1.84-0.03-3.48,1.02-4.92c1.05-1.44,2.58-2.37,4.6-2.77c2.01-0.41,3.78-0.15,5.31,0.76c1.53,0.92,2.48,2.29,2.86,4.13
		c0.37,1.84,0.04,3.49-1.01,4.96C392.73,364.4,391.2,365.34,389.19,365.74z M393.71,416.25l-8.69-42.75l11.03-2.24l8.69,42.75
		L393.71,416.25z"/>
	<path fill="#0032A3" d="M415.24,411.71l-14.53-61.63l10.96-2.58l14.53,61.64L415.24,411.71z"/>
	<path fill="#0032A3" d="M457.86,401.68c-4.22,1.23-8.22,1.43-12.01,0.58c-3.79-0.84-7.09-2.63-9.91-5.35
		c-2.81-2.72-4.84-6.22-6.09-10.49c-1.27-4.33-1.48-8.46-0.64-12.37c0.84-3.91,2.6-7.28,5.29-10.12c2.68-2.83,6.22-4.89,10.61-6.17
		c4.11-1.2,8-1.36,11.68-0.49c3.68,0.88,6.86,2.62,9.55,5.22c2.68,2.61,4.59,5.82,5.71,9.65c0.18,0.62,0.35,1.27,0.53,1.95
		c0.17,0.68,0.33,1.4,0.49,2.15l-31.82,9.31c1.18,3.2,3.07,5.43,5.67,6.68c2.6,1.26,5.36,1.46,8.28,0.6
		c2.19-0.64,3.89-1.67,5.1-3.09c1.2-1.42,1.94-3.03,2.21-4.82l10.97-3.21c-0.01,2.87-0.62,5.67-1.81,8.36
		c-1.2,2.7-2.95,5.06-5.26,7.08C464.08,399.19,461.24,400.69,457.86,401.68z M447.67,366.54c-2.64,0.77-4.76,2.2-6.35,4.29
		c-1.59,2.08-2.22,4.73-1.89,7.93l20.85-6.1c-0.98-2.71-2.63-4.6-4.97-5.69C452.97,365.88,450.43,365.74,447.67,366.54z"/>
</g>
</svg>
