<?xml version="1.0" encoding="utf-8"?>
<!-- Generator: Adobe Illustrator 23.0.3, SVG Export Plug-In . SVG Version: 6.00 Build 0)  -->
<svg version="1.1" id="Capa_1" xmlns="http://www.w3.org/2000/svg" xmlns:xlink="http://www.w3.org/1999/xlink" x="0px" y="0px"
	 viewBox="0 0 512 512" enable-background="new 0 0 512 512" xml:space="preserve">
<g>
	<path fill="#0032A3" d="M59.1,432.02v-59.9h10.95v59.9H59.1z"/>
	<path fill="#0032A3" d="M79.3,432.02v-42.45h9.67l0.85,7.19c1.31-2.51,3.21-4.51,5.69-5.99c2.48-1.48,5.4-2.23,8.77-2.23
		c5.25,0,9.33,1.66,12.24,4.97c2.91,3.31,4.36,8.16,4.36,14.55v23.96h-10.95v-22.93c0-3.65-0.74-6.45-2.23-8.39
		c-1.49-1.94-3.8-2.91-6.93-2.91c-3.08,0-5.61,1.08-7.57,3.25c-1.97,2.17-2.95,5.2-2.95,9.07v21.91H79.3z"/>
	<path fill="#0032A3" d="M148.7,433.05c-3.99,0-7.56-0.97-10.7-2.91c-3.14-1.94-5.62-4.59-7.44-7.96
		c-1.83-3.37-2.74-7.19-2.74-11.47c0-4.28,0.91-8.09,2.74-11.42c1.82-3.34,4.31-5.96,7.44-7.87c3.14-1.91,6.7-2.87,10.7-2.87
		c3.19,0,5.99,0.6,8.38,1.8c2.4,1.2,4.34,2.88,5.82,5.05v-24.99h10.95v61.62h-9.76l-1.2-6.08c-1.37,1.88-3.18,3.54-5.43,4.97
		C155.22,432.34,152.29,433.05,148.7,433.05z M151.01,423.46c3.54,0,6.43-1.18,8.69-3.55c2.25-2.36,3.38-5.4,3.38-9.11
		s-1.13-6.74-3.38-9.11c-2.26-2.37-5.15-3.55-8.69-3.55c-3.48,0-6.36,1.17-8.64,3.51c-2.28,2.34-3.42,5.36-3.42,9.07
		c0,3.71,1.14,6.76,3.42,9.15C144.65,422.27,147.53,423.46,151.01,423.46z"/>
	<path fill="#0032A3" d="M188.75,382.99c-2,0-3.64-0.6-4.92-1.8s-1.93-2.71-1.93-4.54c0-1.82,0.64-3.32,1.93-4.49
		c1.28-1.17,2.92-1.75,4.92-1.75c2,0,3.64,0.58,4.92,1.75c1.28,1.17,1.93,2.67,1.93,4.49c0,1.83-0.64,3.34-1.93,4.54
		C192.39,382.39,190.74,382.99,188.75,382.99z M183.27,432.02v-42.45h10.95v42.45H183.27z"/>
	<path fill="#0032A3" d="M218.19,433.05c-3.65,0-6.65-0.59-8.99-1.76c-2.34-1.17-4.08-2.72-5.22-4.66
		c-1.14-1.94-1.71-4.08-1.71-6.42c0-3.94,1.54-7.13,4.62-9.59c3.08-2.45,7.7-3.68,13.86-3.68h10.78v-1.03
		c0-2.91-0.83-5.05-2.48-6.42c-1.65-1.37-3.71-2.05-6.16-2.05c-2.23,0-4.17,0.53-5.82,1.58s-2.68,2.61-3.08,4.66h-10.7
		c0.29-3.08,1.33-5.76,3.12-8.04c1.8-2.28,4.12-4.04,6.97-5.26c2.85-1.23,6.04-1.84,9.58-1.84c6.05,0,10.81,1.51,14.29,4.54
		c3.48,3.03,5.22,7.3,5.22,12.84v26.1h-9.33l-1.03-6.85c-1.26,2.28-3.01,4.16-5.26,5.65C224.62,432.31,221.73,433.05,218.19,433.05z
		 M220.67,424.49c3.14,0,5.57-1.03,7.32-3.08c1.74-2.05,2.84-4.59,3.29-7.62h-9.33c-2.91,0-4.99,0.53-6.25,1.58
		c-1.25,1.06-1.88,2.35-1.88,3.89c0,1.66,0.63,2.94,1.88,3.85C216.96,424.03,218.62,424.49,220.67,424.49z"/>
	<path fill="#0032A3" d="M272.78,433.05c-4.39,0-8.27-0.76-11.64-2.27c-3.36-1.51-6.02-3.68-7.96-6.5
		c-1.94-2.82-2.94-6.26-2.99-10.31h11.55c0.11,2.8,1.12,5.15,3.04,7.06s4.55,2.87,7.91,2.87c2.91,0,5.22-0.7,6.93-2.1
		c1.71-1.4,2.57-3.27,2.57-5.61c0-2.45-0.76-4.36-2.27-5.73c-1.51-1.37-3.52-2.48-6.03-3.34c-2.51-0.85-5.19-1.77-8.04-2.74
		c-4.62-1.6-8.14-3.65-10.57-6.16c-2.43-2.51-3.64-5.85-3.64-10.01c-0.06-3.54,0.78-6.57,2.52-9.11c1.74-2.54,4.12-4.51,7.15-5.91
		c3.02-1.4,6.5-2.1,10.44-2.1c3.99,0,7.51,0.71,10.57,2.14c3.05,1.43,5.45,3.42,7.19,5.99c1.74,2.57,2.67,5.62,2.78,9.15h-11.72
		c-0.06-2.11-0.87-3.98-2.44-5.6c-1.57-1.63-3.75-2.44-6.55-2.44c-2.4-0.06-4.41,0.53-6.03,1.75c-1.63,1.23-2.44,3.01-2.44,5.35
		c0,2,0.63,3.58,1.88,4.75c1.26,1.17,2.97,2.15,5.14,2.95c2.17,0.8,4.65,1.65,7.44,2.57c2.97,1.03,5.68,2.23,8.13,3.59
		c2.45,1.37,4.42,3.18,5.91,5.44c1.48,2.25,2.23,5.15,2.23,8.68c0,3.14-0.8,6.05-2.4,8.73c-1.59,2.68-3.97,4.84-7.1,6.46
		C281.19,432.23,277.34,433.05,272.78,433.05z"/>
	<path fill="#0032A3" d="M301.02,432.02v-42.45h9.67l0.94,5.74c1.37-2.05,3.18-3.69,5.43-4.92c2.25-1.23,4.86-1.84,7.83-1.84
		c6.56,0,11.21,2.54,13.95,7.62c1.54-2.34,3.61-4.2,6.21-5.56c2.59-1.37,5.43-2.05,8.51-2.05c5.53,0,9.78,1.66,12.75,4.97
		c2.97,3.31,4.45,8.16,4.45,14.55v23.96h-10.95v-22.93c0-3.65-0.7-6.45-2.1-8.39c-1.4-1.94-3.55-2.91-6.46-2.91
		c-2.97,0-5.35,1.08-7.15,3.25c-1.8,2.17-2.7,5.2-2.7,9.07v21.91h-10.95v-22.93c0-3.65-0.71-6.45-2.14-8.39s-3.62-2.91-6.59-2.91
		c-2.91,0-5.26,1.08-7.06,3.25c-1.8,2.17-2.7,5.2-2.7,9.07v21.91H301.02z"/>
	<path fill="#0032A3" d="M384.97,382.99c-2,0-3.64-0.6-4.92-1.8s-1.93-2.71-1.93-4.54c0-1.82,0.64-3.32,1.93-4.49
		c1.28-1.17,2.92-1.75,4.92-1.75c2,0,3.64,0.58,4.92,1.75c1.28,1.17,1.93,2.67,1.93,4.49c0,1.83-0.64,3.34-1.93,4.54
		C388.61,382.39,386.97,382.99,384.97,382.99z M379.49,432.02v-42.45h10.95v42.45H379.49z"/>
	<path fill="#0032A3" d="M399.77,432.02v-61.62h10.95v61.62H399.77z"/>
	<path fill="#0032A3" d="M440.42,433.05c-4.28,0-8.07-0.91-11.38-2.74c-3.31-1.82-5.91-4.39-7.79-7.7
		c-1.88-3.31-2.82-7.13-2.82-11.47c0-4.39,0.93-8.3,2.78-11.72c1.85-3.42,4.42-6.09,7.7-8c3.28-1.91,7.15-2.87,11.6-2.87
		c4.16,0,7.84,0.92,11.04,2.74s5.69,4.32,7.49,7.49c1.8,3.17,2.7,6.69,2.7,10.57c0,0.63-0.02,1.28-0.05,1.97
		c-0.03,0.68-0.07,1.4-0.13,2.14H429.3c0.23,3.31,1.38,5.91,3.47,7.79c2.08,1.88,4.61,2.82,7.57,2.82c2.23,0,4.09-0.5,5.6-1.5
		c1.51-1,2.64-2.29,3.38-3.89h11.13c-0.8,2.68-2.13,5.12-3.98,7.32c-1.85,2.2-4.14,3.92-6.85,5.18S443.85,433.05,440.42,433.05z
		 M440.51,397.45c-2.68,0-5.05,0.76-7.1,2.27c-2.05,1.51-3.37,3.81-3.93,6.89h21.14c-0.17-2.8-1.2-5.02-3.08-6.68
		C445.64,398.28,443.3,397.45,440.51,397.45z"/>
</g>
<g>
	<g>
		<g>
			<g>
				<path fill="#424CFA" d="M333.39,126.27c-9.5-24.49-35.36-30.9-55.58-23.14c7.19,7.56,13.12,16.31,17.47,25.94
					C307.68,125.52,320.67,124.57,333.39,126.27z"/>
				<path fill="#424CFA" d="M225.6,129.1c4.32-9.6,10.24-18.34,17.39-25.88c-20.78-8.13-47.83-0.35-56.59,23.35
					C199.46,124.65,212.84,125.49,225.6,129.1z"/>
				<path fill="#0032A3" d="M303.89,130.63c-7.6-19.45-21.2-36.32-39.48-48.03l-3.97-2.54l-3.97,2.54
					c-17.83,11.42-31.3,27.75-39.01,46.73c4.65,1.59,9.37,3.05,13.87,4.93c6.03-14.5,16.02-27.16,29.1-36.59
					c13.16,9.48,23.14,22.24,29.13,36.78C294.23,132.68,299.05,131.71,303.89,130.63z"/>
			</g>
			<g>
				<path fill="#424CFA" d="M295.27,287.22c-4.3,9.55-10.16,18.24-17.26,25.75c20.73,8.08,47.67,0.34,56.48-23.24
					C321.43,291.66,308.04,290.83,295.27,287.22z"/>
				<path fill="#424CFA" d="M187.49,289.71c9.42,24.57,35.23,31.08,55.48,23.39c-7.19-7.57-13.12-16.35-17.44-26
					C213.14,290.58,200.18,291.45,187.49,289.71z"/>
				<path fill="#0032A3" d="M289.06,283.17c-6.07,14.04-15.88,26.3-28.63,35.48c-13.1-9.44-23.06-22.12-29.08-36.57
					c-0.19,0.09-0.38,0.17-0.57,0.26c-3.94,2.55-8.24,4.34-13.1,5.14c7.72,18.7,21.07,34.89,38.79,46.24l3.96,2.54l3.97-2.54
					c17-10.89,30.04-26.25,37.9-44.11C297.63,287.99,293.17,285.98,289.06,283.17z"/>
			</g>
			<path fill="#424CFA" d="M194.46,200.54c-7.56-10.97-12.5-23.19-14.81-35.81c-18.01,6.16-30.96,23.22-30.96,43.31
				c0,20.15,13.02,37.24,31.1,43.36c2.3-12.53,7.19-24.67,14.67-35.58V200.54z"/>
			<g>
				<path fill="#424CFA" d="M341.87,165.09c-2.43,12.87-7.58,25.31-15.47,36.42v13.56c7.79,11.08,12.89,23.47,15.27,36.27
					c17.77-6.29,30.5-23.23,30.5-43.16C372.17,188.33,359.54,171.43,341.87,165.09z"/>
			</g>
			<path fill="#0032A3" d="M321.12,218.63l-10.39-10.39c19.6-19.6,28.37-47.09,23.94-74.35c-24.17-3.92-48.55,2.45-67.58,17.85
				l-9.24-11.43c23.76-19.22,54.63-26.47,84.68-19.88l4.6,1.01l1.01,4.6C355.51,159.73,345.41,194.34,321.12,218.63z"/>
			<g>
				<g>
					<path fill="#FFFFFF" d="M257.05,145.28l-0.96,1.26l13.06,1.51c0-2.27-0.09-4.51-0.25-6.74c-1.68,1.13-3.34,2.3-4.95,3.55
						L257.05,145.28z"/>
					<path fill="#FFFFFF" d="M251.09,144.77c0.02,0.29,0.04,0.58,0.06,0.87l5.9-0.36l0.09-0.12c-2-1.56-4.04-3.02-6.13-4.39
						C250.98,142.07,251.01,143.41,251.09,144.77z"/>
				</g>
				<path fill="#0032A3" d="M199.74,218.76c-24.29-24.29-34.39-58.9-27-92.59l1.01-4.6l4.6-1.01c29.4-6.45,59.78,0.41,83.33,18.81
					l-9.05,11.58c-18.84-14.71-42.81-20.76-66.43-16.93c-4.43,27.26,4.34,54.75,23.94,74.35L199.74,218.76z"/>
			</g>
			<g>
				<g>
					<path fill="none" d="M194.08,215.81c1.8-2.63,3.76-5.19,5.86-7.66c-2.1-2.46-4.06-5.01-5.86-7.63V215.81z"/>
					<path fill="#FFFFFF" d="M199.95,208.15c1.58,1.85,3.24,3.66,4.99,5.41l4.2-5.51l-4.07-5.47
						C203.27,204.39,201.57,206.25,199.95,208.15z"/>
				</g>
				<path fill="#0032A3" d="M200.21,297.95c-7.23,0-14.52-0.78-21.74-2.36l-4.6-1.01l-1.01-4.6c-7.38-33.69,2.71-68.3,27-92.59
					l10.39,10.39c-19.6,19.6-28.37,47.09-23.94,74.34c23.28,3.78,46.98-2.07,65.69-16.36l8.92,11.68
					C243.35,290.87,222.02,297.95,200.21,297.95z"/>
			</g>
			<g>
				<path fill="#0032A3" d="M320.43,298.13c-22.73,0-44.82-7.69-62.83-22.26l9.24-11.43c19.04,15.4,43.43,21.78,67.58,17.85
					c4.43-27.26-4.34-54.75-23.94-74.35l10.4-10.39c24.29,24.29,34.38,58.9,27,92.59l-1.01,4.6l-4.6,1.01
					C335.01,297.35,327.68,298.13,320.43,298.13z"/>
			</g>
			<path fill="#424CFA" d="M314.64,262.43c0.01-0.01,0.02-0.02,0.03-0.03c5.58-7.38,8.89-16.57,8.89-26.54
				c0-10.38-3.6-19.92-9.61-27.46c-0.1-0.13-0.1-0.31,0-0.43c6.01-7.53,9.61-17.07,9.61-27.46c0-9.97-3.32-19.15-8.89-26.54
				c-0.01-0.01-0.02-0.02-0.03-0.03c-7.38-5.58-16.57-8.89-26.54-8.89c-10.38,0-19.92,3.6-27.46,9.61c-0.13,0.1-0.31,0.1-0.43,0
				c-7.53-6.01-17.07-9.61-27.46-9.61c-9.97,0-19.15,3.32-26.54,8.89c-0.01,0.01-0.02,0.02-0.03,0.03
				c-5.58,7.38-8.89,16.57-8.89,26.54c0,10.38,3.6,19.92,9.61,27.46c0.1,0.13,0.1,0.31,0,0.43c-6.01,7.53-9.61,17.07-9.61,27.45
				c0,9.97,3.32,19.15,8.89,26.54c0.01,0.01,0.02,0.02,0.03,0.03c7.38,5.58,16.57,8.89,26.54,8.89c10.38,0,19.92-3.6,27.46-9.61
				c0.13-0.1,0.31-0.1,0.43,0c7.53,6.01,17.07,9.61,27.46,9.61C298.07,271.32,307.25,268,314.64,262.43z M212.87,180.52
				c0-5.66,1.65-10.93,4.5-15.36c0.01-0.01,0.01-0.02,0.02-0.02c4.43-2.85,9.7-4.5,15.36-4.5c8.57,0,16.24,3.79,21.47,9.77
				c0.09,0.1,0.09,0.26,0,0.36c-5.23,5.98-12.9,9.76-21.47,9.76c0,8.56-3.79,16.23-9.77,21.46c-0.1,0.09-0.26,0.09-0.36,0
				C216.66,196.75,212.87,189.09,212.87,180.52z M288.1,180.52c-8.57,0-16.23-3.79-21.46-9.76c-0.09-0.1-0.09-0.26,0-0.36
				c5.23-5.98,12.9-9.77,21.47-9.77c5.66,0,10.93,1.65,15.36,4.5c0.01,0.01,0.02,0.02,0.03,0.03c2.85,4.43,4.5,9.7,4.5,15.36
				c0,8.57-3.79,16.24-9.77,21.46c-0.1,0.09-0.26,0.09-0.36,0C291.89,196.76,288.1,189.09,288.1,180.52
				C288.1,180.52,288.1,180.52,288.1,180.52z M217.4,251.25c-0.01-0.01-0.02-0.02-0.03-0.03c-2.85-4.43-4.5-9.7-4.5-15.36
				c0-8.57,3.79-16.23,9.77-21.47c0.1-0.09,0.26-0.09,0.36,0c5.79,5.07,9.52,12.42,9.75,20.66c0.01,0.45,0.36,0.81,0.82,0.82
				c8.24,0.23,15.59,3.97,20.66,9.75c0.09,0.1,0.09,0.26,0,0.36c-5.23,5.98-12.9,9.77-21.47,9.77
				C227.1,255.75,221.83,254.1,217.4,251.25z M266.64,245.63c5.23-5.98,12.9-9.76,21.47-9.76c0-8.57,3.79-16.23,9.76-21.47
				c0.1-0.09,0.26-0.09,0.36,0c5.98,5.23,9.77,12.9,9.77,21.47c0,5.66-1.65,10.93-4.5,15.36c-0.01,0.01-0.02,0.02-0.03,0.03
				c-4.43,2.85-9.7,4.5-15.36,4.5c-8.57,0-16.23-3.79-21.47-9.77C266.55,245.89,266.55,245.73,266.64,245.63z"/>
			<path fill="#424CFA" d="M332.22,208.16c-1.19-8.59-5.08-16.87-11.68-23.47c-6.9-6.9-15.63-10.83-24.62-11.83
				c-0.1-0.01-0.18-0.09-0.19-0.19c-1-8.99-4.93-17.72-11.83-24.62c-6.6-6.6-14.88-10.49-23.47-11.68c0,0,0,0,0,0
				c-8.59,1.19-16.87,5.08-23.47,11.68c-6.9,6.9-10.83,15.62-11.83,24.62c-0.01,0.1-0.09,0.18-0.19,0.19
				c-8.99,1-17.72,4.93-24.62,11.83c-6.6,6.6-10.49,14.88-11.68,23.47c0,0,0,0,0,0c1.19,8.59,5.08,16.87,11.68,23.47
				c6.9,6.9,15.63,10.83,24.62,11.83c0.1,0.01,0.18,0.09,0.19,0.19c1,8.99,4.93,17.72,11.83,24.62c6.6,6.6,14.88,10.49,23.47,11.68
				c8.59-1.19,16.87-5.08,23.47-11.68c6.9-6.9,10.83-15.62,11.83-24.62c0.01-0.1,0.09-0.18,0.19-0.19c8.99-1,17.72-4.93,24.62-11.83
				C327.14,225.03,331.03,216.74,332.22,208.16z"/>
		</g>
	</g>
	<path fill="#FFFFFF" d="M288.39,184.27L288.39,184.27c-7.37-7.37-19.31-7.37-26.68,0l-1.29,1.29c-0.01,0.01-0.01,0.02-0.02,0.02
		c-0.01-0.01-0.01-0.02-0.02-0.02l-1.29-1.29c-7.37-7.37-19.31-7.37-26.68,0h0c-7.37,7.37-7.37,19.31,0,26.68l28,26.47l27.98-26.47
		C295.75,203.58,295.75,191.64,288.39,184.27z"/>
</g>
</svg>
