<?xml version="1.0" encoding="utf-8"?>
<!-- Generator: Adobe Illustrator 23.0.3, SVG Export Plug-In . SVG Version: 6.00 Build 0)  -->
<svg version="1.1" id="Capa_1" xmlns="http://www.w3.org/2000/svg" xmlns:xlink="http://www.w3.org/1999/xlink" x="0px" y="0px"
	 viewBox="0 0 512 512" enable-background="new 0 0 512 512" xml:space="preserve">
<g>
	<g>
		<g>
			<g>
				<path fill="#424CFA" d="M370.5,129.71c-14.34-36.96-53.37-46.64-83.88-34.93c10.85,11.4,19.81,24.62,26.36,39.16
					C331.7,128.58,351.31,127.15,370.5,129.71z"/>
				<path fill="#424CFA" d="M207.82,133.99c6.53-14.49,15.45-27.67,26.25-39.06c-31.37-12.27-72.18-0.53-85.4,35.25
					C168.37,127.28,188.56,128.54,207.82,133.99z"/>
				<path fill="#0032A3" d="M325.98,136.3c-11.46-29.36-32-54.83-59.58-72.5l-5.98-3.84l-5.99,3.83
					c-26.91,17.24-47.24,41.89-58.88,70.54c7.02,2.4,14.14,4.6,20.94,7.44c9.1-21.89,24.18-41,43.93-55.23
					c19.86,14.31,34.92,33.57,43.97,55.51C311.4,139.39,318.67,137.93,325.98,136.3z"/>
			</g>
			<g>
				<path fill="#424CFA" d="M312.97,372.64c-6.49,14.41-15.33,27.53-26.05,38.86c31.29,12.19,71.95,0.51,85.24-35.08
					C352.45,379.35,332.24,378.1,312.97,372.64z"/>
				<path fill="#424CFA" d="M150.3,376.41c14.21,37.09,53.18,46.91,83.74,35.31c-10.85-11.43-19.8-24.68-26.33-39.25
					C189.01,377.72,169.44,379.03,150.3,376.41z"/>
				<path fill="#0032A3" d="M303.59,366.53c-9.16,21.19-23.96,39.69-43.21,53.56c-19.77-14.24-34.8-33.39-43.89-55.19
					c-0.28,0.13-0.57,0.26-0.86,0.39c-5.94,3.85-12.44,6.55-19.78,7.75c11.66,28.22,31.8,52.67,58.54,69.8l5.98,3.84l5.99-3.83
					c25.66-16.44,45.34-39.62,57.21-66.58C316.53,373.81,309.8,370.77,303.59,366.53z"/>
			</g>
			<path fill="#424CFA" d="M160.81,241.82c-11.41-16.55-18.87-35-22.36-54.04c-27.18,9.29-46.74,35.04-46.74,65.37
				c0,30.41,19.65,56.21,46.95,65.44c3.47-18.91,10.86-37.23,22.14-53.7V241.82z"/>
			<g>
				<path fill="#424CFA" d="M383.3,188.31c-3.66,19.42-11.44,38.2-23.35,54.97v20.46c11.76,16.72,19.45,35.42,23.05,54.74
					c26.82-9.49,46.04-35.06,46.04-65.14C429.04,223.38,409.97,197.89,383.3,188.31z"/>
			</g>
			<path fill="#0032A3" d="M351.99,269.12l-15.69-15.69c29.58-29.58,42.81-71.07,36.13-112.21c-36.47-5.92-73.27,3.7-102,26.94
				l-13.95-17.25c35.86-29.01,82.46-39.95,127.81-30.01l6.94,1.52l1.52,6.94C403.88,180.22,388.65,232.47,351.99,269.12z"/>
			<g>
				<g>
					<path fill="#FFFFFF" d="M255.28,158.41l-1.45,1.9l19.71,2.27c0-3.42-0.14-6.81-0.38-10.17c-2.53,1.71-5.03,3.47-7.47,5.36
						L255.28,158.41z"/>
					<path fill="#FFFFFF" d="M246.29,157.65c0.03,0.44,0.06,0.87,0.09,1.31l8.91-0.54l0.14-0.19c-3.01-2.35-6.11-4.56-9.26-6.63
						C246.13,153.57,246.17,155.59,246.29,157.65z"/>
				</g>
				<path fill="#0032A3" d="M168.78,269.31c-36.66-36.66-51.9-88.9-40.76-139.75l1.52-6.94l6.94-1.52
					c44.38-9.73,90.22,0.62,125.77,28.39l-13.65,17.48c-28.43-22.2-64.61-31.34-100.26-25.55c-6.69,41.14,6.55,82.63,36.13,112.21
					L168.78,269.31z"/>
			</g>
			<g>
				<g>
					<path fill="none" d="M160.25,264.87c2.72-3.97,5.67-7.83,8.85-11.56c-3.18-3.72-6.13-7.56-8.85-11.51V264.87z"/>
					<path fill="#FFFFFF" d="M169.1,253.31c2.39,2.79,4.88,5.52,7.53,8.16l6.35-8.31l-6.15-8.25
						C174.11,247.62,171.54,250.43,169.1,253.31z"/>
				</g>
				<path fill="#0032A3" d="M169.5,388.83c-10.92,0-21.91-1.18-32.81-3.56l-6.94-1.52l-1.52-6.94
					c-11.14-50.84,4.1-103.09,40.76-139.75l15.69,15.69c-29.58,29.58-42.81,71.08-36.13,112.21c35.14,5.71,70.91-3.13,99.15-24.69
					l13.47,17.64C234.61,378.16,202.41,388.83,169.5,388.83z"/>
			</g>
			<g>
				<path fill="#0032A3" d="M350.94,389.11c-34.3,0-67.64-11.6-94.83-33.59l13.95-17.25c28.73,23.24,65.55,32.87,102,26.94
					c6.69-41.14-6.55-82.63-36.13-112.21l15.69-15.69c36.66,36.66,51.89,88.91,40.75,139.75l-1.52,6.94l-6.94,1.52
					C372.94,387.93,361.89,389.11,350.94,389.11z"/>
			</g>
			<path fill="#424CFA" d="M342.2,335.22c0.01-0.01,0.03-0.02,0.04-0.04c8.42-11.15,13.42-25.01,13.42-40.05
				c0-15.67-5.43-30.07-14.5-41.44c-0.16-0.19-0.16-0.46,0-0.66c9.07-11.37,14.5-25.77,14.5-41.44c0-15.04-5-28.91-13.42-40.05
				c-0.01-0.02-0.03-0.03-0.04-0.04c-11.14-8.42-25.01-13.42-40.05-13.42c-15.67,0-30.07,5.43-41.44,14.5
				c-0.19,0.16-0.46,0.16-0.66,0c-11.37-9.07-25.77-14.5-41.44-14.5c-15.04,0-28.91,5-40.05,13.42c-0.02,0.01-0.03,0.03-0.04,0.04
				c-8.42,11.14-13.42,25.01-13.42,40.05c0,15.67,5.43,30.07,14.5,41.44c0.16,0.2,0.16,0.46,0,0.66
				c-9.06,11.37-14.5,25.77-14.5,41.44c0,15.04,5,28.91,13.42,40.05c0.01,0.01,0.02,0.03,0.04,0.04
				c11.15,8.42,25.01,13.42,40.05,13.42c15.67,0,30.07-5.43,41.44-14.5c0.2-0.16,0.46-0.16,0.66,0c11.37,9.06,25.77,14.5,41.44,14.5
				C317.19,348.65,331.06,343.64,342.2,335.22z M188.6,211.6c0-8.54,2.5-16.5,6.8-23.19c0.01-0.01,0.02-0.03,0.04-0.04
				c6.69-4.3,14.64-6.8,23.19-6.8c12.93,0,24.5,5.72,32.4,14.74c0.13,0.15,0.13,0.39,0,0.54c-7.9,9.02-19.47,14.74-32.4,14.74
				c0,12.93-5.72,24.5-14.74,32.39c-0.15,0.13-0.39,0.13-0.54,0C194.32,236.1,188.6,224.53,188.6,211.6z M302.15,211.6
				c-12.93,0-24.5-5.72-32.4-14.74c-0.13-0.15-0.13-0.39,0-0.54c7.89-9.02,19.47-14.74,32.4-14.74c8.54,0,16.5,2.5,23.19,6.79
				c0.02,0.01,0.03,0.02,0.04,0.04c4.3,6.69,6.79,14.64,6.79,23.18c0,12.93-5.72,24.5-14.74,32.4c-0.15,0.13-0.39,0.13-0.54,0
				C307.87,236.11,302.15,224.53,302.15,211.6C302.15,211.6,302.15,211.6,302.15,211.6z M195.43,318.36
				c-0.02-0.01-0.03-0.03-0.04-0.04c-4.3-6.69-6.79-14.64-6.79-23.18c0-12.93,5.72-24.5,14.74-32.4c0.15-0.13,0.39-0.13,0.54,0
				c8.74,7.65,14.38,18.74,14.72,31.18c0.02,0.68,0.55,1.22,1.23,1.23c12.44,0.35,23.53,5.98,31.18,14.72
				c0.13,0.15,0.13,0.39,0,0.54c-7.89,9.02-19.47,14.74-32.4,14.74C210.07,325.15,202.12,322.66,195.43,318.36z M269.75,309.87
				c7.9-9.02,19.47-14.74,32.4-14.74c0-12.93,5.72-24.5,14.74-32.4c0.15-0.13,0.39-0.13,0.54,0c9.02,7.89,14.74,19.47,14.74,32.4
				c0,8.54-2.5,16.49-6.79,23.18c-0.01,0.02-0.03,0.03-0.04,0.04c-6.69,4.3-14.64,6.79-23.19,6.79c-12.93,0-24.5-5.72-32.4-14.74
				C269.62,310.26,269.62,310.02,269.75,309.87z"/>
			<path fill="#424CFA" d="M368.74,253.31c-1.8-12.96-7.67-25.46-17.63-35.42c-10.41-10.41-23.58-16.35-37.16-17.85
				c-0.16-0.02-0.28-0.14-0.29-0.29c-1.5-13.57-7.44-26.75-17.85-37.16c-9.96-9.96-22.46-15.83-35.42-17.63c0,0,0,0,0,0
				c-12.96,1.8-25.46,7.67-35.42,17.63c-10.41,10.41-16.34,23.58-17.85,37.16c-0.02,0.16-0.14,0.28-0.29,0.29
				c-13.57,1.5-26.75,7.44-37.16,17.85c-9.96,9.96-15.83,22.47-17.63,35.42c0,0,0,0,0,0c1.8,12.96,7.67,25.46,17.63,35.42
				c10.41,10.41,23.58,16.34,37.16,17.85c0.16,0.02,0.28,0.14,0.29,0.29c1.5,13.57,7.44,26.75,17.85,37.16
				c9.96,9.96,22.47,15.83,35.42,17.63c12.96-1.8,25.46-7.67,35.43-17.63c10.41-10.41,16.34-23.58,17.85-37.16
				c0.02-0.16,0.14-0.28,0.29-0.29c13.57-1.5,26.75-7.44,37.16-17.85C361.07,278.77,366.94,266.27,368.74,253.31z"/>
		</g>
	</g>
	<path fill="#FFFFFF" d="M302.58,217.26L302.58,217.26c-11.12-11.12-29.15-11.12-40.26,0l-1.94,1.94c-0.01,0.01-0.02,0.02-0.03,0.04
		c-0.01-0.01-0.02-0.02-0.03-0.04l-1.94-1.94c-11.12-11.12-29.15-11.12-40.26,0h0c-11.12,11.12-11.12,29.15,0,40.26l42.26,39.96
		l42.23-39.96C313.7,246.41,313.7,228.38,302.58,217.26z"/>
</g>
</svg>
